<svg id="Layer_1" data-name="Layer 1" xmlns="http://www.w3.org/2000/svg" viewBox="0 0 312.68 362.32"><defs><style>.cls-1{fill:#f088b0;}.cls-2{fill:#646f61;}.cls-2,.cls-5{opacity:0.9;isolation:isolate;}.cls-3{fill:#494949;}.cls-4{fill:#b0463d;}.cls-5{fill:#945d60;}</style></defs><title>adminwheel</title><g id="Group_1976" data-name="Group 1976"><g id="Group_1783" data-name="Group 1783"><path id="Path_2220" data-name="Path 2220" class="cls-1" d="M242.26,600.45l-1,.06c.15-.24.3-.48.44-.73Z" transform="translate(-133 -238.2)"/></g><g id="Group_13478" data-name="Group 13478"><path id="Path_2213" data-name="Path 2213" class="cls-2" d="M225.33,250.14c2.43,0,2.43,1.75,2.91,2.88q9.78,23.31,19.44,46.68,13.83,33.46,27.6,67c2.34,5.68,4.79,11.31,7.07,17,.32.8,1.49,1.81.46,2.68s-1.9-.19-2.77-.55q-23-9.49-46-19.05l-83-34.38c-5.95-2.48-5.24-1.71-2.62-7.1,14.85-30.62,37.19-54.14,67.2-70.29C218.89,253.2,222.32,251.63,225.33,250.14Z" transform="translate(-133 -238.2)"/><path id="Path_2214" data-name="Path 2214" class="cls-2" d="M295,398.33,337,415.76c30.57,12.66,61.11,25.38,91.74,37.9,3.31,1.36,3.7,2.6,2.21,5.69Q406.51,510,355.87,534.42c-2.84,1.37-4.24,1.25-5.57-2q-18.68-45.57-37.63-91-7.87-19-15.77-38C296.34,402,295.85,400.66,295,398.33Z" transform="translate(-133 -238.2)"/></g><g id="Group_13477" data-name="Group 13477"><path id="Path_2215" data-name="Path 2215" class="cls-3" d="M280.9,393c-8.72,3.64-16.45,6.89-24.2,10.1q-41.28,17.13-82.58,34.23c-9.06,3.76-18.13,7.5-27.16,11.33-2.18.93-3.45.73-4.29-1.73a170.7,170.7,0,0,1-9.21-42.58c-1.73-22.17,1.51-43.56,8.83-64.47,1.12-3.18,2.42-3.85,5.46-2.57q30.94,13,62,25.86c18.11,7.52,36.26,14.95,54.36,22.51C269.37,387.89,274.88,389.65,280.9,393Z" transform="translate(-133 -238.2)"/><path id="Path_2216" data-name="Path 2216" class="cls-3" d="M297.26,392.82c20.44-8.44,40-16.46,59.48-24.56q31.53-13.1,63-26.27c3.94-1.64,8-3,11.89-4.79,2.75-1.24,3.7-.2,4.58,2.31a165.26,165.26,0,0,1,9.11,44.13c1.43,21.06-1.88,41.31-8.6,61.14-1.73,5.11-1.89,5.05-6.77,3l-63.75-26.43C343.58,412,320.93,402.62,297.26,392.82Z" transform="translate(-133 -238.2)"/></g><g id="Group_13479" data-name="Group 13479"><path id="Path_2211" data-name="Path 2211" class="cls-4" d="M225.14,535.3c-2.27-1-5.13-2.06-7.73-3.54-8.18-4.64-16.52-9-23.79-15.11-10-8.35-19.55-17.07-27.55-27.51a190.48,190.48,0,0,1-18.71-30.46c-1.35-2.68-.48-3.81,2-4.81q18.61-7.55,37.16-15.25,18.25-7.51,36.51-15.09l55-22.75c1.38-.57,3.05-1.6,4.19-.67s-.09,2.62-.57,3.81q-9.41,23.2-19,46.37-15.36,37-30.86,74c-1.3,3.13-2.63,6.25-4,9.37A2.19,2.19,0,0,1,225.14,535.3Z" transform="translate(-133 -238.2)"/><path id="Path_2217" data-name="Path 2217" class="cls-4" d="M432,329.47c-.1,1.15-1.05,1.34-1.83,1.67l-45.58,19q-19.14,8-38.29,15.84Q322.65,375.7,299,385.38c-.84.34-1.74.68-2.46-.08s-.09-1.65.23-2.44c5.4-13.09,10.77-26.19,16.21-39.26,6.65-16,13.39-32,20.05-48Q340,279,346.81,262.26c1.33-3.24,2.45-6.54,4-9.71,1-2.07,1.94-2.61,4-1.62A161.86,161.86,0,0,1,394,276.74a164.89,164.89,0,0,1,32.62,41.14c1.92,3.38,3.35,7,5,10.56C431.76,328.78,431.87,329.14,432,329.47Z" transform="translate(-133 -238.2)"/></g><g id="Group_13476" data-name="Group 13476"><path id="Path_2513" data-name="Path 2513" class="cls-5" d="M289.13,399.46l17.44,42.08c12.66,30.57,25.26,61.16,38.05,91.67,1.39,3.3.79,4.46-2.46,5.59Q289,557.31,236,538.76c-3-1-3.88-2.11-2.52-5.36q19-45.42,37.75-91,7.88-19,15.72-38C287.48,403.06,288.11,401.73,289.13,399.46Z" transform="translate(-133 -238.2)"/><path id="Path_2514" data-name="Path 2514" class="cls-5" d="M289.09,386.79,271.65,344.7C259,314.13,246.39,283.54,233.59,253c-1.38-3.3-.78-4.45,2.46-5.58q53.13-18.52,106.2,0c3,1,3.87,2.11,2.51,5.36q-19,45.42-37.75,91-7.86,19-15.71,38C290.73,383.18,290.1,384.51,289.09,386.79Z" transform="translate(-133 -238.2)"/></g></g></svg>