<svg xmlns="http://www.w3.org/2000/svg" width="635.653" height="671.453" viewBox="0 0 635.653 671.453">
  <g id="_154805-OUC3T4-802" data-name="154805-OUC3T4-802" transform="translate(-92 -33.151)">
    <g id="BACKGROUND" transform="translate(34.484 33.151)">
      <g id="Group_1935" data-name="Group 1935" opacity="0.49">
        <path id="Path_2375" data-name="Path 2375" d="M492.133,71.158a56.152,56.152,0,0,0-30.276,8.818,56.431,56.431,0,0,0-109.748-6.307A56.445,56.445,0,0,0,368.8,184.031H492.133a56.436,56.436,0,0,0,0-112.873Z" transform="translate(144.601 -33.151)" fill="#fff"/>
        <path id="Path_2377" data-name="Path 2377" d="M174.908,156.966A47.409,47.409,0,0,0,136.637,204.7a49.461,49.461,0,0,0-66.246,55.7c5.252,26.813,32.7,39.04,58.056,39.04s90.429,2.431,121.937-3.741c32.167-6.3,56.89-27.841,50.911-60.071-5.178-27.91-41.509-50.166-63.093-26.264C233.578,156.905,184.479,155.093,174.908,156.966Z" transform="translate(-11.944 46.359)" fill="#fff"/>
        <path id="Path_2378" data-name="Path 2378" d="M442.094,213.326a13.557,13.557,0,0,0-10.944,13.651A14.145,14.145,0,0,0,412.206,242.9c1.5,7.666,9.35,11.163,16.6,11.163s25.861.7,34.871-1.069c9.2-1.8,16.269-7.962,14.558-17.178-1.482-7.982-11.87-14.346-18.041-7.51C458.87,213.309,444.83,212.789,442.094,213.326Z" transform="translate(208.772 82.883)" fill="#fff"/>
      </g>
    </g>
    <g id="OBJECTS" transform="translate(147.529 67.704)">
      <path id="Path_2379" data-name="Path 2379" d="M441.785,378.641c0,11.477-29.653,20.781-66.229,20.781s-66.229-9.3-66.229-20.781,29.651-20.783,66.229-20.783S441.785,367.164,441.785,378.641Z" transform="translate(29.597 141.558)" fill="#262424" opacity="0.14" style="mix-blend-mode: multiply;isolation: isolate"/>
      <g id="Group_1939" data-name="Group 1939" transform="translate(322.447 289.436)">
        <g id="Group_1936" data-name="Group 1936" transform="translate(12.545)">
          <path id="Path_2380" data-name="Path 2380" d="M339.468,278.026a43.007,43.007,0,1,1,85.739-4.85,43.54,43.54,0,0,1-.388,5.782,43.014,43.014,0,0,1-13.67,83.8h-61.2a43.012,43.012,0,0,1-10.477-84.728Z" transform="translate(-306.936 -230.169)" fill="#626e60"/>
          <path id="Path_2381" data-name="Path 2381" d="M332.078,301.13a3.1,3.1,0,0,1,4.2-1.26l25.479,13.71V295.518l-15.422-10.164a3.1,3.1,0,1,1,3.412-5.18l12.01,7.918V270.463a4.479,4.479,0,0,1,8.959,0v18.076l13.8-8.086a3.1,3.1,0,0,1,3.136,5.353l-16.938,9.921v18.739l26.3-14.18a3.1,3.1,0,0,1,2.944,5.46l-29.248,15.767v120.21c0,2.472-8.959,2.472-8.959,0v-121.1l-28.418-15.292A3.1,3.1,0,0,1,332.078,301.13Z" transform="translate(-290.973 -207.087)" fill="#784e31"/>
          <path id="Path_2382" data-name="Path 2382" d="M332.078,301.13a3.1,3.1,0,0,1,4.2-1.26l25.479,13.71V295.518l-15.422-10.164a3.1,3.1,0,1,1,3.412-5.18l12.01,7.918V270.463a4.479,4.479,0,0,1,4.479-4.478l.409,177.584c-2.366.079-4.889-.536-4.889-1.847v-121.1l-28.418-15.292A3.1,3.1,0,0,1,332.078,301.13Z" transform="translate(-290.973 -207.087)" fill="#5d3519"/>
        </g>
        <g id="Group_1938" data-name="Group 1938" transform="translate(0 201.534)">
          <path id="Path_2383" data-name="Path 2383" d="M396.5,392.127A14.484,14.484,0,0,0,385.222,378.1a14.571,14.571,0,0,0-21.184-14.759,14.466,14.466,0,0,0-11.37-7.423l-.14-.013a14.387,14.387,0,0,0-12.319,5.1,14.476,14.476,0,0,0-13.1-2.741c-.1.028-.286.082-.378.112a14.462,14.462,0,0,0-9.834,10.3,14.487,14.487,0,0,0-14.627,5.473c-.036.046-.084.113-.115.151a14.489,14.489,0,0,0,.653,18.063,14.488,14.488,0,0,0-.64,18.048c.067.092.2.265.268.352a14.473,14.473,0,0,0,14.432,5.274,14.41,14.41,0,0,0,10.082,10.345c.077.023.212.059.288.082a14.465,14.465,0,0,0,12.975-2.758,14.465,14.465,0,0,0,11.046,5.137c.441,0,.883-.018,1.329-.059l.064-.007a14.467,14.467,0,0,0,11.395-7.4,14.416,14.416,0,0,0,14.139-.406l.016-.008a14.481,14.481,0,0,0,7.035-14.389A14.484,14.484,0,0,0,396.5,392.446v-.054C396.5,392.306,396.5,392.216,396.5,392.127Z" transform="translate(-299.308 -350.708)" fill="#0d0d0d" opacity="0.21" style="mix-blend-mode: multiply;isolation: isolate"/>
          <path id="Path_2384" data-name="Path 2384" d="M396.5,389a14.484,14.484,0,0,0-11.276-14.029,14.571,14.571,0,0,0-21.184-14.759,14.466,14.466,0,0,0-11.37-7.423l-.14-.013a14.387,14.387,0,0,0-12.319,5.1,14.476,14.476,0,0,0-13.1-2.741c-.1.028-.286.082-.378.112a14.462,14.462,0,0,0-9.834,10.3,14.487,14.487,0,0,0-14.627,5.473c-.036.046-.084.113-.115.151a14.489,14.489,0,0,0,.653,18.063,14.488,14.488,0,0,0-.64,18.048c.067.092.2.265.268.352a14.473,14.473,0,0,0,14.432,5.274,14.41,14.41,0,0,0,10.082,10.345c.077.023.212.059.288.082a14.465,14.465,0,0,0,12.975-2.758,14.465,14.465,0,0,0,11.046,5.137c.441,0,.883-.018,1.329-.059l.064-.007a14.467,14.467,0,0,0,11.395-7.4,14.416,14.416,0,0,0,14.139-.406l.016-.008a14.481,14.481,0,0,0,7.035-14.389A14.484,14.484,0,0,0,396.5,389.321v-.054C396.5,389.181,396.5,389.091,396.5,389Z" transform="translate(-299.308 -352.722)" fill="#576e23"/>
          <path id="Path_2385" data-name="Path 2385" d="M396.5,389a14.669,14.669,0,0,0-2.454-7.973,14.3,14.3,0,0,0-8.822-6.056,14.571,14.571,0,0,0-21.184-14.759,14.466,14.466,0,0,0-11.37-7.423l-.14-.013a14.387,14.387,0,0,0-12.319,5.1,14.476,14.476,0,0,0-13.1-2.741c-.1.028-.286.082-.378.112a14.462,14.462,0,0,0-9.834,10.3,14.487,14.487,0,0,0-14.627,5.473c-.036.046-.084.113-.115.151a14.489,14.489,0,0,0,.653,18.063,14.488,14.488,0,0,0-.64,18.048c.067.092.2.265.268.352a14.473,14.473,0,0,0,14.432,5.274,14.41,14.41,0,0,0,10.082,10.345c.077.023.212.059.288.082a14.465,14.465,0,0,0,12.975-2.758,14.465,14.465,0,0,0,11.046,5.137c.441,0,.883-.018,1.329-.059l.064-.007a14.467,14.467,0,0,0,11.395-7.4,14.416,14.416,0,0,0,14.139-.406l.016-.008a14.481,14.481,0,0,0,7.035-14.389A14.484,14.484,0,0,0,396.5,389.321v-.054C396.5,389.181,396.5,389.091,396.5,389Z" transform="translate(-299.308 -352.722)" fill="#626e60"/>
          <g id="Group_1937" data-name="Group 1937" transform="translate(0.02 30.911)">
            <path id="Path_2386" data-name="Path 2386" d="M395.411,371.519a14.5,14.5,0,0,1-10.184,8.656,14.483,14.483,0,0,1-7.035,14.389l-.016.008a14.416,14.416,0,0,1-14.139.406,14.471,14.471,0,0,1-11.395,7.4l-.064.007q-.668.059-1.329.059a14.465,14.465,0,0,1-11.046-5.137,14.475,14.475,0,0,1-12.975,2.758c-.076-.023-.211-.059-.288-.082a14.413,14.413,0,0,1-10.082-10.345,14.473,14.473,0,0,1-14.432-5.274c-.069-.089-.2-.26-.268-.352a14.461,14.461,0,0,1-1.72-3.041,14.465,14.465,0,0,0,1.72,14.193c.067.092.2.265.268.352a14.473,14.473,0,0,0,14.432,5.274,14.41,14.41,0,0,0,10.082,10.345c.077.023.212.059.288.082a14.465,14.465,0,0,0,12.975-2.758,14.465,14.465,0,0,0,11.046,5.137c.441,0,.883-.018,1.329-.059l.064-.007a14.467,14.467,0,0,0,11.395-7.4,14.416,14.416,0,0,0,14.139-.406l.016-.008a14.481,14.481,0,0,0,7.035-14.389,14.484,14.484,0,0,0,11.265-14.121v-.054c0-.086,0-.176,0-.265A14.431,14.431,0,0,0,395.411,371.519Z" transform="translate(-299.32 -371.519)" fill="#262424" opacity="0.34"/>
          </g>
        </g>
      </g>
      <ellipse id="Ellipse_346" data-name="Ellipse 346" cx="66.228" cy="20.782" rx="66.228" ry="20.782" transform="translate(38.121 498.36)" fill="#262424" opacity="0.14" style="mix-blend-mode: multiply;isolation: isolate"/>
      <g id="Group_1943" data-name="Group 1943" transform="translate(13.915 289.436)">
        <g id="Group_1940" data-name="Group 1940">
          <path id="Path_2387" data-name="Path 2387" d="M226.376,278.026a43.007,43.007,0,1,0-85.353.932,43.014,43.014,0,0,0,13.672,83.8h61.2a43.012,43.012,0,0,0,10.477-84.728Z" transform="translate(-111.689 -230.169)" fill="#626e60"/>
          <path id="Path_2388" data-name="Path 2388" d="M203.459,301.13a3.1,3.1,0,0,0-4.2-1.26l-25.481,13.71V295.518L189.2,285.354a3.1,3.1,0,0,0-3.412-5.18l-12.011,7.918V270.463a4.478,4.478,0,0,0-8.956,0v18.076l-13.8-8.086a3.1,3.1,0,1,0-3.136,5.353l16.94,9.921v18.739l-26.306-14.18a3.1,3.1,0,1,0-2.942,5.46l29.248,15.767v120.21c0,2.472,8.956,2.472,8.956,0v-121.1l28.42-15.292A3.1,3.1,0,0,0,203.459,301.13Z" transform="translate(-97.347 -207.087)" fill="#784e31"/>
          <path id="Path_2389" data-name="Path 2389" d="M189.763,301.13a3.1,3.1,0,0,0-4.2-1.26l-25.481,13.71V295.518l15.423-10.164a3.1,3.1,0,0,0-3.412-5.18l-12.011,7.918V270.463a4.478,4.478,0,0,0-4.478-4.478L155.2,443.569c2.366.079,4.887-.536,4.887-1.847v-121.1l28.42-15.292A3.1,3.1,0,0,0,189.763,301.13Z" transform="translate(-83.651 -207.087)" fill="#5d3519"/>
        </g>
        <g id="Group_1942" data-name="Group 1942" transform="translate(52.003 201.534)">
          <path id="Path_2390" data-name="Path 2390" d="M240.5,390.877a14.482,14.482,0,0,0-11.276-14.029,14.571,14.571,0,0,0-21.184-14.759,14.466,14.466,0,0,0-11.37-7.423l-.14-.013a14.389,14.389,0,0,0-12.319,5.1,14.475,14.475,0,0,0-13.1-2.741c-.094.028-.286.082-.378.112a14.46,14.46,0,0,0-9.832,10.3,14.488,14.488,0,0,0-14.629,5.473c-.036.046-.086.113-.115.151a14.487,14.487,0,0,0,.654,18.063,14.485,14.485,0,0,0-.641,18.048c.069.092.2.265.268.352a14.474,14.474,0,0,0,14.432,5.274,14.415,14.415,0,0,0,10.084,10.345c.076.023.21.059.286.082a14.464,14.464,0,0,0,12.975-2.758,14.468,14.468,0,0,0,11.048,5.137c.439,0,.881-.018,1.327-.059l.064-.007a14.464,14.464,0,0,0,11.394-7.4,14.42,14.42,0,0,0,14.141-.406l.015-.008a14.485,14.485,0,0,0,7.037-14.389A14.483,14.483,0,0,0,240.5,391.2v-.054C240.5,391.057,240.5,390.966,240.5,390.877Z" transform="translate(-143.312 -351.514)" fill="#0d0d0d" opacity="0.21" style="mix-blend-mode: multiply;isolation: isolate"/>
          <path id="Path_2391" data-name="Path 2391" d="M242.377,389A14.482,14.482,0,0,0,231.1,374.973a14.571,14.571,0,0,0-21.184-14.759,14.466,14.466,0,0,0-11.37-7.423l-.14-.013a14.389,14.389,0,0,0-12.319,5.1,14.475,14.475,0,0,0-13.1-2.741c-.094.028-.286.082-.378.112a14.46,14.46,0,0,0-9.832,10.3,14.488,14.488,0,0,0-14.629,5.473c-.036.046-.086.113-.115.151a14.487,14.487,0,0,0,.654,18.063,14.485,14.485,0,0,0-.641,18.048c.069.092.2.265.268.352a14.473,14.473,0,0,0,14.432,5.274,14.412,14.412,0,0,0,10.084,10.345c.076.023.21.059.286.082a14.464,14.464,0,0,0,12.975-2.758,14.468,14.468,0,0,0,11.048,5.137c.439,0,.881-.018,1.327-.059l.064-.007a14.464,14.464,0,0,0,11.395-7.4,14.419,14.419,0,0,0,14.141-.406l.015-.008a14.485,14.485,0,0,0,7.037-14.389,14.483,14.483,0,0,0,11.263-14.121v-.054C242.378,389.181,242.378,389.091,242.377,389Z" transform="translate(-142.103 -352.722)" fill="#626e60"/>
          <g id="Group_1941" data-name="Group 1941" transform="translate(3.084 30.911)">
            <path id="Path_2392" data-name="Path 2392" d="M241.28,371.519a14.5,14.5,0,0,1-10.182,8.656,14.49,14.49,0,0,1-7.037,14.389l-.015.008a14.423,14.423,0,0,1-14.142.406,14.463,14.463,0,0,1-11.393,7.4l-.064.007q-.668.059-1.327.059a14.472,14.472,0,0,1-11.049-5.137,14.47,14.47,0,0,1-12.973,2.758c-.076-.023-.21-.059-.288-.082a14.416,14.416,0,0,1-10.082-10.345,14.473,14.473,0,0,1-14.432-5.274c-.069-.089-.2-.26-.268-.352a14.39,14.39,0,0,1-1.72-3.041,14.457,14.457,0,0,0,1.72,14.193c.067.092.2.265.268.352a14.473,14.473,0,0,0,14.432,5.274,14.413,14.413,0,0,0,10.082,10.345c.077.023.212.059.288.082a14.46,14.46,0,0,0,12.973-2.758,14.472,14.472,0,0,0,11.049,5.137c.439,0,.881-.018,1.327-.059l.064-.007a14.459,14.459,0,0,0,11.393-7.4,14.423,14.423,0,0,0,14.142-.406l.015-.008a14.488,14.488,0,0,0,7.037-14.389,14.483,14.483,0,0,0,11.263-14.121v-.054c0-.086,0-.176,0-.265A14.431,14.431,0,0,0,241.28,371.519Z" transform="translate(-145.187 -371.519)" fill="#262424" opacity="0.34"/>
          </g>
        </g>
      </g>
      <g id="Group_1961" data-name="Group 1961" transform="translate(36.597)">
        <rect id="Rectangle_1335" data-name="Rectangle 1335" width="300.353" height="352.574" transform="translate(59.715 27.087)" fill="#e8dfc7"/>
        <rect id="Rectangle_1336" data-name="Rectangle 1336" width="300.353" height="205.42" transform="translate(59.715 379.661)" fill="#d6c9a9"/>
        <g id="Group_1945" data-name="Group 1945" transform="translate(216.309 420.832)">
          <rect id="Rectangle_1337" data-name="Rectangle 1337" width="60.866" height="38.6" transform="translate(60.866 125.649)" fill="#9ca8cb"/>
          <rect id="Rectangle_1338" data-name="Rectangle 1338" width="60.866" height="13.933" transform="translate(60.866 125.649)" fill="#514c4c" opacity="0.15" style="mix-blend-mode: multiply;isolation: isolate"/>
          <rect id="Rectangle_1339" data-name="Rectangle 1339" width="60.866" height="123.556" transform="translate(60.866 0)" fill="rgba(90,103,168,0.75)"/>
          <path id="Path_2393" data-name="Path 2393" d="M354.9,345.146l-60.866,24.514v-8.373l58.754-20.537Z" transform="translate(-233.166 -290.299)" fill="#afbde4"/>
          <rect id="Rectangle_1340" data-name="Rectangle 1340" width="60.866" height="164.249" transform="translate(0 0)" fill="rgba(60,60,60,0.97)"/>
          <g id="Group_1944" data-name="Group 1944" transform="translate(0 0)" opacity="0.21" style="mix-blend-mode: multiply;isolation: isolate">
            <path id="Path_2394" data-name="Path 2394" d="M317.886,474.32H304.373L257.02,310.071h60.866Z" transform="translate(-257.02 -310.071)" fill="#3c3c3c"/>
          </g>
          <path id="Path_2395" data-name="Path 2395" d="M257.02,310.071V474.32h5.971V316.042h54.9v-5.971Z" transform="translate(-257.02 -310.071)" fill="#fff"/>
          <path id="Path_2396" data-name="Path 2396" d="M294.032,310.071V474.32H354.9V310.071Zm54.9,5.971V432.733H300V316.042ZM300,468.347V438.706h48.924v29.641Z" transform="translate(-233.166 -310.071)" fill="#fff"/>
        </g>
        <g id="Group_1946" data-name="Group 1946" transform="translate(78.392 420.832)">
          <rect id="Rectangle_1341" data-name="Rectangle 1341" width="121.732" height="77.097" fill="rgba(90,103,168,0.75)"/>
          <path id="Path_2397" data-name="Path 2397" d="M294.884,332.734,173.152,376.7V367.3l121.732-40.981Z" transform="translate(-173.152 -299.599)" fill="#afbde4"/>
          <path id="Path_2511" data-name="Path 2511" d="M0,0H121.732V58.17H0Z" transform="translate(0 90.333)" fill="rgba(90,103,168,0.75)"/>
          <path id="Path_2398" data-name="Path 2398" d="M294.884,375.677,173.152,419.641v-6.31l121.732-44.066Z" transform="translate(-173.152 -271.923)" fill="#afbde4"/>
          <rect id="Rectangle_1343" data-name="Rectangle 1343" width="121.732" height="17.058" transform="translate(0 90.333)" fill="#514c4c" opacity="0.15" style="mix-blend-mode: multiply;isolation: isolate"/>
        </g>
        <path id="Path_2399" data-name="Path 2399" d="M545.263,323.818H125.482L185.2,285.035H485.549Z" transform="translate(-125.482 94.626)" fill="#fdf6e4"/>
        <path id="Path_2400" data-name="Path 2400" d="M356.309,323.818h59.435l-59.713-38.783H326.453Z" transform="translate(4.037 94.626)" fill="#af473c"/>
        <path id="Path_2401" data-name="Path 2401" d="M305.183,285.035h-49.3l1.389,38.783h56.1Z" transform="translate(-41.44 94.626)" fill="#af473c"/>
        <path id="Path_2402" data-name="Path 2402" d="M337.974,285.035H292.26l15.72,38.783h56.1Z" transform="translate(-18 94.626)" fill="#af473c"/>
        <path id="Path_2403" data-name="Path 2403" d="M224.754,285.035h49.3l-4.974,38.783h-56.1Z" transform="translate(-69.093 94.626)" fill="#af473c"/>
        <path id="Path_2404" data-name="Path 2404" d="M193.192,285.035h48.7L226.17,323.818h-56.1Z" transform="translate(-96.746 94.626)" fill="#af473c"/>
        <path id="Path_2405" data-name="Path 2405" d="M210.815,285.035H185.2l-59.715,38.783h55.476Z" transform="translate(-125.482 94.626)" fill="#af473c"/>
        <rect id="Rectangle_1344" data-name="Rectangle 1344" width="300.367" height="13.544" transform="translate(59.495 185.993)" fill="#d6c9a9"/>
        <g id="Group_1948" data-name="Group 1948" transform="translate(100.356 54.52)">
          <rect id="Rectangle_1345" data-name="Rectangle 1345" width="92.951" height="111.958" fill="#d6c9a9"/>
          <path id="Path_2406" data-name="Path 2406" d="M265.676,101.646H200.292l-13.783-14.33h92.951Z" transform="translate(-186.509 -87.316)" fill="#c0b497"/>
          <rect id="Rectangle_1346" data-name="Rectangle 1346" width="65.384" height="97.629" transform="translate(13.783 14.33)" fill="rgba(90,103,168,0.75)"/>
          <path id="Path_2407" data-name="Path 2407" d="M260.274,110.11l-65.384,59.7V157.623L260.274,98.53Z" transform="translate(-181.107 -80.089)" fill="#c3d3ff"/>
          <rect id="Rectangle_1347" data-name="Rectangle 1347" width="65.384" height="11.579" transform="translate(13.783 14.33)" fill="#96a1c2"/>
          <path id="Path_2408" data-name="Path 2408" d="M260.274,96.03H194.89v97.629h65.384ZM254.3,141.86H230.568V102H254.3ZM200.861,102H224.6V141.86H200.861Zm0,85.685V147.831H224.6v39.857Zm53.442,0H230.568V147.831H254.3Z" transform="translate(-181.107 -81.701)" fill="#fff"/>
          <path id="Path_2409" data-name="Path 2409" d="M279.459,140.163v-.6H186.509v1.195h0V165.6H187.7V140.761h10.858V165.6h1.195V140.761h8.47V165.6h1.194V140.761h8.47V165.6h1.195V140.761h8.47V165.6h1.194V140.761h8.47V165.6h1.194V140.761h8.47V165.6h1.194V140.761h8.47V165.6h1.194V140.761h8.47V165.6h1.195V140.761h10.859V165.6h1.195V140.163Z" transform="translate(-186.509 -53.644)" fill="#958c75"/>
          <g id="Group_1947" data-name="Group 1947" transform="translate(44.113 49.808)">
            <path id="Path_2410" data-name="Path 2410" d="M251.086,131.927a6.346,6.346,0,0,0-.589-8.112l-.232-.235a6.326,6.326,0,0,0-8.109-.659,6.347,6.347,0,0,0-6.193-5.313l-.253,0a6.349,6.349,0,0,0-6.252,5.252,6.344,6.344,0,0,0-8.119.63l-.184.179a6.35,6.35,0,0,0-.707,8.135,6.347,6.347,0,0,0-5.3,6.2l0,.243a6.349,6.349,0,0,0,5.247,6.252,6.348,6.348,0,0,0,.625,8.125l.181.183a6.347,6.347,0,0,0,8.127.712,6.35,6.35,0,0,0,6.206,5.307l.238,0a6.342,6.342,0,0,0,6.244-5.244,6.349,6.349,0,0,0,8.137-.617l.183-.181a6.349,6.349,0,0,0,.715-8.122,6.346,6.346,0,0,0,5.313-6.21l0-.294A6.316,6.316,0,0,0,251.086,131.927Z" transform="translate(-212.167 -117.605)" fill="#626e60"/>
            <path id="Path_2411" data-name="Path 2411" d="M215.147,131.119l0,.243a6.349,6.349,0,0,0,5.247,6.252,6.348,6.348,0,0,0,.625,8.125l.181.183a6.347,6.347,0,0,0,8.127.712,6.35,6.35,0,0,0,6.206,5.307l.238,0a6.342,6.342,0,0,0,6.244-5.244,6.349,6.349,0,0,0,8.137-.617l.183-.181a6.349,6.349,0,0,0,.715-8.122,6.346,6.346,0,0,0,5.313-6.21l0-.294a11.257,11.257,0,0,0-.753-2.995Z" transform="translate(-212.167 -110.725)" fill="#0d0d0d" opacity="0.15" style="mix-blend-mode: multiply;isolation: isolate"/>
            <rect id="Rectangle_1348" data-name="Rectangle 1348" width="47.175" height="6.37" rx="1.546" transform="translate(0.001 21.989)" fill="#b76f44"/>
            <path id="Path_2412" data-name="Path 2412" d="M259.586,133.852H214.258a.924.924,0,0,1-.924-.923h0a.925.925,0,0,1,.924-.924h45.328a.924.924,0,0,1,.922.924h0A.922.922,0,0,1,259.586,133.852Z" transform="translate(-213.334 -108.325)" fill="#cf7e4d"/>
            <path id="Rectangle_1349" data-name="Rectangle 1349" d="M0,0H43a0,0,0,0,1,0,0V14.492A1.692,1.692,0,0,1,41.3,16.184H1.692A1.692,1.692,0,0,1,0,14.491V0A0,0,0,0,1,0,0Z" transform="translate(2.09 28.359)" fill="#b76f44"/>
            <rect id="Rectangle_1350" data-name="Rectangle 1350" width="2.517" height="16.184" transform="translate(6.913 28.359)" fill="#cf7e4d"/>
            <rect id="Rectangle_1351" data-name="Rectangle 1351" width="2.517" height="16.184" transform="translate(10.913 28.359)" fill="#cf7e4d"/>
            <path id="Path_2413" data-name="Path 2413" d="M255.861,151.033H216.345a1.739,1.739,0,0,1-1.74-1.738L257.6,134.85v14.445A1.738,1.738,0,0,1,255.861,151.033Z" transform="translate(-212.515 -106.491)" fill="#0d0d0d" opacity="0.15" style="mix-blend-mode: multiply;isolation: isolate"/>
            <path id="Path_2414" data-name="Path 2414" d="M256.686,135.918H216.8l41.473-2.725v1.136A1.589,1.589,0,0,1,256.686,135.918Z" transform="translate(-211.1 -107.559)" fill="#0d0d0d" opacity="0.15" style="mix-blend-mode: multiply;isolation: isolate"/>
          </g>
        </g>
        <g id="Group_1950" data-name="Group 1950" transform="translate(226.354 54.52)">
          <rect id="Rectangle_1352" data-name="Rectangle 1352" width="92.951" height="111.958" fill="#d6c9a9"/>
          <path id="Path_2415" data-name="Path 2415" d="M342.3,101.646H276.912l-13.784-14.33h92.951Z" transform="translate(-263.128 -87.316)" fill="#c0b497"/>
          <rect id="Rectangle_1353" data-name="Rectangle 1353" width="65.385" height="97.629" transform="translate(13.784 14.33)" fill="rgba(90,103,168,0.75)"/>
          <path id="Path_2416" data-name="Path 2416" d="M336.895,111.161l-65.385,59.7V158.674l65.385-59.093Z" transform="translate(-257.726 -79.412)" fill="#c3d3ff"/>
          <rect id="Rectangle_1354" data-name="Rectangle 1354" width="65.385" height="11.579" transform="translate(13.784 14.33)" fill="#96a1c2"/>
          <path id="Path_2417" data-name="Path 2417" d="M263.128,139.566V165.6h1.195V140.761h10.859V165.6h1.195V140.761h8.468V165.6h1.195V140.761h8.47V165.6H295.7V140.761h8.471V165.6h1.193V140.761h8.471V165.6h1.195V140.761H323.5V165.6H324.7V140.761h8.47V165.6h1.195V140.761h8.471V165.6h1.193V140.761h10.859V165.6h1.193V139.566Z" transform="translate(-263.128 -53.644)" fill="#958c75"/>
          <path id="Path_2418" data-name="Path 2418" d="M271.51,96.03v97.629h65.384V96.03ZM277.483,102h23.733V141.86H277.483Zm0,85.685V147.831h23.733v39.857Zm53.44,0H307.188V147.831h23.735ZM307.188,141.86V102h23.735V141.86Z" transform="translate(-257.726 -81.701)" fill="#fff"/>
          <g id="Group_1949" data-name="Group 1949" transform="translate(5.968 49.808)">
            <path id="Path_2419" data-name="Path 2419" d="M304.509,131.927a6.344,6.344,0,0,0-.589-8.112l-.232-.235a6.326,6.326,0,0,0-8.109-.659,6.347,6.347,0,0,0-6.195-5.313l-.252,0a6.348,6.348,0,0,0-6.252,5.252,6.346,6.346,0,0,0-8.12.63l-.181.179a6.348,6.348,0,0,0-.709,8.135,6.346,6.346,0,0,0-5.3,6.2l0,.243a6.349,6.349,0,0,0,5.247,6.252,6.344,6.344,0,0,0,.625,8.125l.181.183a6.347,6.347,0,0,0,8.127.712,6.347,6.347,0,0,0,6.206,5.307l.238,0a6.339,6.339,0,0,0,6.242-5.244,6.349,6.349,0,0,0,8.137-.617l.184-.181a6.349,6.349,0,0,0,.715-8.122,6.351,6.351,0,0,0,5.315-6.21v-.294A6.316,6.316,0,0,0,304.509,131.927Z" transform="translate(-265.59 -117.605)" fill="#626e60"/>
            <path id="Path_2420" data-name="Path 2420" d="M304.509,126.314l-35.94,6.073,0,.243a6.349,6.349,0,0,0,5.247,6.252,6.344,6.344,0,0,0,.625,8.125l.181.183a6.347,6.347,0,0,0,8.127.712,6.347,6.347,0,0,0,6.206,5.307l.238,0a6.339,6.339,0,0,0,6.242-5.244,6.349,6.349,0,0,0,8.137-.617l.184-.181a6.349,6.349,0,0,0,.715-8.122,6.351,6.351,0,0,0,5.315-6.21v-.294A6.316,6.316,0,0,0,304.509,126.314Z" transform="translate(-265.59 -111.992)" fill="#0d0d0d" opacity="0.15" style="mix-blend-mode: multiply;isolation: isolate"/>
            <path id="Rectangle_1355" data-name="Rectangle 1355" d="M1.546,0H45.629a1.547,1.547,0,0,1,1.547,1.547V4.824A1.546,1.546,0,0,1,45.63,6.37H1.546A1.546,1.546,0,0,1,0,4.824V1.546A1.546,1.546,0,0,1,1.546,0Z" transform="translate(0 21.989)" fill="#b76f44"/>
            <path id="Path_2421" data-name="Path 2421" d="M313.009,133.852H267.68a.923.923,0,0,1-.923-.923h0a.925.925,0,0,1,.923-.924h45.33a.924.924,0,0,1,.923.924h0A.922.922,0,0,1,313.009,133.852Z" transform="translate(-266.757 -108.325)" fill="#cf7e4d"/>
            <path id="Rectangle_1356" data-name="Rectangle 1356" d="M0,0H42.994a0,0,0,0,1,0,0V14.492A1.691,1.691,0,0,1,41.3,16.184H1.692A1.692,1.692,0,0,1,0,14.491V0A0,0,0,0,1,0,0Z" transform="translate(2.091 28.359)" fill="#b76f44"/>
            <rect id="Rectangle_1357" data-name="Rectangle 1357" width="2.517" height="16.184" transform="translate(6.913 28.359)" fill="#cf7e4d"/>
            <rect id="Rectangle_1358" data-name="Rectangle 1358" width="2.516" height="16.184" transform="translate(10.912 28.359)" fill="#cf7e4d"/>
            <path id="Path_2422" data-name="Path 2422" d="M309.284,151.033H269.768a1.739,1.739,0,0,1-1.74-1.738l42.994-14.445v14.445A1.738,1.738,0,0,1,309.284,151.033Z" transform="translate(-265.938 -106.491)" fill="#0d0d0d" opacity="0.15" style="mix-blend-mode: multiply;isolation: isolate"/>
            <path id="Path_2423" data-name="Path 2423" d="M310.107,135.918H270.224l41.473-2.725v1.136A1.589,1.589,0,0,1,310.107,135.918Z" transform="translate(-264.522 -107.559)" fill="#0d0d0d" opacity="0.15" style="mix-blend-mode: multiply;isolation: isolate"/>
          </g>
        </g>
        <g id="Group_1951" data-name="Group 1951" transform="translate(100.356 267.702)">
          <rect id="Rectangle_1359" data-name="Rectangle 1359" width="92.951" height="111.96" fill="#d6c9a9"/>
          <path id="Path_2424" data-name="Path 2424" d="M265.676,231.283H200.292l-13.783-14.33h92.951Z" transform="translate(-186.509 -216.952)" fill="#c0b497"/>
          <rect id="Rectangle_1360" data-name="Rectangle 1360" width="65.384" height="97.63" transform="translate(13.783 14.33)" fill="rgba(90,103,168,0.75)"/>
          <path id="Path_2425" data-name="Path 2425" d="M260.245,245.419,194.86,305.125V292.932l65.385-59.092Z" transform="translate(-181.127 -206.069)" fill="#c3d3ff"/>
          <path id="Path_2426" data-name="Path 2426" d="M260.274,225.666H194.89V323.3h65.384Zm-5.971,5.973v39.855H230.568V231.639Zm-53.442,0H224.6v39.855H200.861Zm0,45.828H224.6v39.857H200.861ZM254.3,317.324H230.568V277.467H254.3Z" transform="translate(-181.107 -211.336)" fill="#fff"/>
          <rect id="Rectangle_1361" data-name="Rectangle 1361" width="65.384" height="11.579" transform="translate(13.783 20.302)" fill="#514c4c" opacity="0.15" style="mix-blend-mode: multiply;isolation: isolate"/>
          <rect id="Rectangle_1362" data-name="Rectangle 1362" width="65.384" height="11.579" transform="translate(13.783 14.33)" fill="#af473c"/>
          <path id="Path_2427" data-name="Path 2427" d="M279.459,269.8v-.6H186.509V270.4h0v24.842H187.7V270.4h10.858v24.842h1.195V270.4h8.47v24.842h1.194V270.4h8.47v24.842h1.195V270.4h8.47v24.842h1.194V270.4h8.47v24.842h1.194V270.4h8.47v24.842h1.194V270.4h8.47v24.842h1.194V270.4h8.47v24.842h1.195V270.4h10.859v24.842h1.195V269.8Z" transform="translate(-186.509 -183.279)" fill="#958c75"/>
        </g>
        <g id="Group_1952" data-name="Group 1952" transform="translate(226.354 267.702)">
          <rect id="Rectangle_1364" data-name="Rectangle 1364" width="92.951" height="111.96" fill="#d6c9a9"/>
          <path id="Path_2428" data-name="Path 2428" d="M342.3,231.283H276.912l-13.784-14.33h92.951Z" transform="translate(-263.128 -216.952)" fill="#c0b497"/>
          <rect id="Rectangle_1365" data-name="Rectangle 1365" width="65.385" height="97.63" transform="translate(13.784 14.33)" fill="rgba(90,103,168,0.75)"/>
          <path id="Path_2429" data-name="Path 2429" d="M336.895,245.061l-65.385,59.7V292.573l65.385-59.093Z" transform="translate(-257.726 -206.3)" fill="#c3d3ff"/>
          <path id="Path_2430" data-name="Path 2430" d="M307.188,225.666H271.51V323.3h65.384v-97.63Zm-29.706,5.973h23.733v39.855H277.483Zm0,45.828h23.733v39.857H277.483Zm53.44,39.857H307.188V277.467h23.735Zm-23.735-45.83V231.639h23.735v39.855Z" transform="translate(-257.726 -211.336)" fill="#fff"/>
          <rect id="Rectangle_1366" data-name="Rectangle 1366" width="65.385" height="11.579" transform="translate(13.784 20.302)" fill="#514c4c" opacity="0.15" style="mix-blend-mode: multiply;isolation: isolate"/>
          <path id="Path_2512" data-name="Path 2512" d="M0,0H65.385V11.579H0Z" transform="translate(13.784 14.33)" fill="#af473c"/>
          <path id="Path_2431" data-name="Path 2431" d="M356.08,269.8v-.6H263.129V270.4h0v24.842h1.195V270.4h10.859v24.842h1.193V270.4h8.47v24.842h1.195V270.4h8.47v24.842h1.195V270.4h8.47v24.842h1.195V270.4h8.47v24.842h1.195V270.4h8.47v24.842H324.7V270.4h8.47v24.842h1.195V270.4h8.47v24.842h1.195V270.4h10.858v24.842h1.195V269.8Z" transform="translate(-263.127 -183.279)" fill="#958c75"/>
        </g>
        <path id="Path_2433" data-name="Path 2433" d="M462.147,313.512H161.794v39.816a32.782,32.782,0,0,0,7.364.789c16.006,0,20.426-9.693,20.426-9.693s5.567,9.693,20.378,9.693,20.426-9.693,20.426-9.693,3.374,9.693,20.377,9.693,20.426-9.693,20.426-9.693,3.374,9.693,20.378,9.693,20.426-9.693,20.426-9.693,2.973,9.693,20.378,9.693,20.424-9.693,20.424-9.693,3.371,9.693,20.38,9.693,20.426-9.693,20.426-9.693,5.956,9.693,20.377,9.693,20.426-9.693,20.426-9.693,4.96,9.693,20.38,9.693a31.048,31.048,0,0,0,7.362-.839Z" transform="translate(-102.08 112.979)" fill="#514c4c" opacity="0.15" style="mix-blend-mode: multiply;isolation: isolate"/>
        <path id="Path_2434" data-name="Path 2434" d="M545.231,308.619H125.513a.029.029,0,0,0-.031.028v13.789c0,14.493,10.332,26.788,26.006,26.788s20.694-9.694,20.694-9.694,4.373,9.694,20.378,9.694,20.426-9.694,20.426-9.694,5.567,9.694,20.378,9.694,20.426-9.694,20.426-9.694,3.374,9.694,20.377,9.694,20.426-9.694,20.426-9.694,3.374,9.694,20.378,9.694S335.4,339.53,335.4,339.53s2.973,9.694,20.378,9.694S376.2,339.53,376.2,339.53s3.371,9.694,20.38,9.694S417,339.53,417,339.53s5.956,9.694,20.377,9.694,20.426-9.694,20.426-9.694,4.96,9.694,20.38,9.694,20.424-9.694,20.424-9.694,4.348,9.694,20.646,9.694c14.493,0,26.006-12.3,26.006-26.788V308.647A.028.028,0,0,0,545.231,308.619Z" transform="translate(-125.482 109.825)" fill="#fdf6e4"/>
        <path id="Path_2435" data-name="Path 2435" d="M125.959,321.153a26.717,26.717,0,0,0,5.747,11.371,25.2,25.2,0,0,0,19.474,8.622c15.675,0,20.694-9.694,20.694-9.694s4.373,9.694,20.378,9.694,20.426-9.694,20.426-9.694,5.567,9.694,20.378,9.694,20.426-9.694,20.426-9.694,3.374,9.694,20.377,9.694,20.426-9.694,20.426-9.694,3.374,9.694,20.378,9.694,20.426-9.694,20.426-9.694,2.973,9.694,20.378,9.694,20.424-9.694,20.424-9.694,3.371,9.694,20.38,9.694,20.426-9.694,20.426-9.694,5.956,9.694,20.377,9.694,20.426-9.694,20.426-9.694,4.96,9.694,20.38,9.694,20.424-9.694,20.424-9.694,4.348,9.694,20.646,9.694c12.123,0,22.162-8.605,25.121-19.9Z" transform="translate(-125.174 117.903)" fill="#0d0d0d" opacity="0.08" style="mix-blend-mode: multiply;isolation: isolate"/>
        <g id="Group_1955" data-name="Group 1955" transform="translate(41.801)">
          <rect id="Rectangle_1371" data-name="Rectangle 1371" width="312.295" height="13.544" transform="translate(11.942 13.543)" fill="#c0b497"/>
          <path id="Path_2440" data-name="Path 2440" d="M475.139,67.706h-312.3L150.9,54.163H487.082Z" transform="translate(-150.901 -54.163)" fill="#d6c9a9"/>
          <path id="Path_2441" data-name="Path 2441" d="M158.163,81.25h312.3V67.706L482.4,54.163Z" transform="translate(-146.221 -54.163)" fill="#0d0d0d" opacity="0.06" style="mix-blend-mode: multiply;isolation: isolate"/>
        </g>
        <g id="Group_1956" data-name="Group 1956" transform="translate(41.801 166.479)">
          <rect id="Rectangle_1372" data-name="Rectangle 1372" width="312.295" height="13.543" transform="translate(11.942 13.543)" fill="#c0b497"/>
          <path id="Path_2442" data-name="Path 2442" d="M475.139,168.941h-312.3L150.9,155.4H487.082Z" transform="translate(-150.901 -155.398)" fill="#d6c9a9"/>
          <path id="Path_2443" data-name="Path 2443" d="M158.163,182.485h312.3V168.941L482.4,155.4Z" transform="translate(-146.221 -155.398)" fill="#0d0d0d" opacity="0.06" style="mix-blend-mode: multiply;isolation: isolate"/>
        </g>
        <g id="Group_1958" data-name="Group 1958" transform="translate(242.994 327.048)">
          <path id="Path_2444" data-name="Path 2444" d="M370.438,292.446a14.488,14.488,0,0,0-11.278-14.029,14.568,14.568,0,0,0-21.184-14.756,14.459,14.459,0,0,0-11.37-7.426l-.14-.013a14.4,14.4,0,0,0-12.319,5.1,14.464,14.464,0,0,0-13.1-2.741c-.092.026-.286.082-.377.11a14.458,14.458,0,0,0-9.834,10.3,14.485,14.485,0,0,0-14.628,5.469c-.038.046-.086.113-.115.153a14.482,14.482,0,0,0,.654,18.063,14.485,14.485,0,0,0-.643,18.048l.268.354a14.482,14.482,0,0,0,14.433,5.272A14.412,14.412,0,0,0,300.89,326.7c.074.021.211.061.284.081a14.463,14.463,0,0,0,12.975-2.756A14.477,14.477,0,0,0,325.2,329.16c.439,0,.883-.02,1.327-.059l.066-.007a14.472,14.472,0,0,0,11.393-7.4,14.424,14.424,0,0,0,14.141-.406l.016-.008a14.492,14.492,0,0,0,7.037-14.387,14.491,14.491,0,0,0,11.263-14.123v-.053C370.44,292.625,370.44,292.535,370.438,292.446Z" transform="translate(-273.247 -251.027)" fill="#0d0d0d" opacity="0.21" style="mix-blend-mode: multiply;isolation: isolate"/>
          <path id="Path_2445" data-name="Path 2445" d="M370.438,289.321a14.488,14.488,0,0,0-11.278-14.029,14.568,14.568,0,0,0-21.184-14.756,14.459,14.459,0,0,0-11.37-7.426l-.14-.013a14.4,14.4,0,0,0-12.319,5.1,14.464,14.464,0,0,0-13.1-2.741c-.092.026-.286.082-.377.11a14.458,14.458,0,0,0-9.834,10.3,14.485,14.485,0,0,0-14.628,5.469c-.038.046-.086.113-.115.153a14.482,14.482,0,0,0,.654,18.063,14.485,14.485,0,0,0-.643,18.048l.268.354a14.481,14.481,0,0,0,14.433,5.272,14.412,14.412,0,0,0,10.084,10.345c.074.021.211.061.284.081A14.462,14.462,0,0,0,314.15,320.9a14.477,14.477,0,0,0,11.048,5.137c.439,0,.883-.02,1.327-.059l.066-.007a14.472,14.472,0,0,0,11.393-7.4,14.424,14.424,0,0,0,14.141-.406l.016-.008a14.492,14.492,0,0,0,7.037-14.387,14.491,14.491,0,0,0,11.263-14.123v-.053C370.44,289.5,370.44,289.41,370.438,289.321Z" transform="translate(-273.247 -253.041)" fill="#799931"/>
          <path id="Path_2446" data-name="Path 2446" d="M370.438,289.321a14.488,14.488,0,0,0-11.278-14.029,14.568,14.568,0,0,0-21.184-14.756,14.459,14.459,0,0,0-11.37-7.426l-.14-.013a14.4,14.4,0,0,0-12.319,5.1,14.464,14.464,0,0,0-13.1-2.741c-.092.026-.286.082-.377.11a14.458,14.458,0,0,0-9.834,10.3,14.485,14.485,0,0,0-14.628,5.469c-.038.046-.086.113-.115.153a14.482,14.482,0,0,0,.654,18.063,14.485,14.485,0,0,0-.643,18.048l.268.354a14.481,14.481,0,0,0,14.433,5.272,14.412,14.412,0,0,0,10.084,10.345c.074.021.211.061.284.081A14.462,14.462,0,0,0,314.15,320.9a14.477,14.477,0,0,0,11.048,5.137c.439,0,.883-.02,1.327-.059l.066-.007a14.472,14.472,0,0,0,11.393-7.4,14.424,14.424,0,0,0,14.141-.406l.016-.008a14.492,14.492,0,0,0,7.037-14.387,14.491,14.491,0,0,0,11.263-14.123v-.053C370.44,289.5,370.44,289.41,370.438,289.321Z" transform="translate(-273.247 -253.041)" fill="#626e60"/>
          <g id="Group_1957" data-name="Group 1957" transform="translate(0.019 30.912)" opacity="0.21" style="mix-blend-mode: multiply;isolation: isolate">
            <path id="Path_2447" data-name="Path 2447" d="M369.35,271.839a14.5,14.5,0,0,1-10.181,8.656,14.489,14.489,0,0,1-7.037,14.387l-.016.008a14.419,14.419,0,0,1-14.141.406,14.464,14.464,0,0,1-11.393,7.4l-.066.007c-.444.041-.888.059-1.327.059a14.471,14.471,0,0,1-11.047-5.137,14.458,14.458,0,0,1-12.975,2.758c-.074-.021-.211-.059-.284-.082A14.407,14.407,0,0,1,290.8,289.959a14.478,14.478,0,0,1-14.433-5.272c-.069-.089-.2-.261-.268-.354a14.558,14.558,0,0,1-1.72-3.039,14.465,14.465,0,0,0,1.72,14.193l.268.354a14.482,14.482,0,0,0,14.433,5.272,14.412,14.412,0,0,0,10.084,10.345c.074.021.21.061.284.081a14.462,14.462,0,0,0,12.975-2.756,14.476,14.476,0,0,0,11.047,5.137c.439,0,.883-.02,1.327-.059l.066-.007a14.472,14.472,0,0,0,11.393-7.4,14.424,14.424,0,0,0,14.141-.406l.016-.008a14.492,14.492,0,0,0,7.037-14.387,14.491,14.491,0,0,0,11.263-14.123v-.053c0-.089,0-.179,0-.268A14.4,14.4,0,0,0,369.35,271.839Z" transform="translate(-273.259 -271.839)" fill="#0d0d0d" opacity="0.34"/>
          </g>
        </g>
        <g id="Group_1960" data-name="Group 1960" transform="translate(105.303 327.048)">
          <path id="Path_2448" data-name="Path 2448" d="M286.706,292.446a14.487,14.487,0,0,0-11.276-14.029,14.568,14.568,0,0,0-21.184-14.756,14.461,14.461,0,0,0-11.37-7.426l-.14-.013a14.4,14.4,0,0,0-12.319,5.1,14.466,14.466,0,0,0-13.1-2.741c-.094.026-.286.082-.378.11a14.458,14.458,0,0,0-9.832,10.3,14.487,14.487,0,0,0-14.629,5.469c-.036.046-.084.113-.113.153a14.484,14.484,0,0,0,.653,18.063,14.485,14.485,0,0,0-.641,18.048c.067.09.2.263.268.354a14.479,14.479,0,0,0,14.432,5.272A14.412,14.412,0,0,0,217.159,326.7c.076.021.21.061.286.081a14.464,14.464,0,0,0,12.975-2.756,14.471,14.471,0,0,0,11.048,5.137q.659,0,1.327-.059l.064-.007a14.472,14.472,0,0,0,11.394-7.4,14.424,14.424,0,0,0,14.141-.406l.015-.008a14.486,14.486,0,0,0,7.037-14.387,14.489,14.489,0,0,0,11.263-14.123v-.053C286.708,292.625,286.708,292.535,286.706,292.446Z" transform="translate(-189.517 -251.027)" fill="#0d0d0d" opacity="0.21" style="mix-blend-mode: multiply;isolation: isolate"/>
          <path id="Path_2449" data-name="Path 2449" d="M286.706,289.321a14.487,14.487,0,0,0-11.276-14.029,14.568,14.568,0,0,0-21.184-14.756,14.462,14.462,0,0,0-11.37-7.426l-.14-.013a14.4,14.4,0,0,0-12.319,5.1,14.465,14.465,0,0,0-13.1-2.741c-.094.026-.286.082-.378.11a14.459,14.459,0,0,0-9.832,10.3,14.487,14.487,0,0,0-14.629,5.469c-.036.046-.084.113-.113.153a14.484,14.484,0,0,0,.653,18.063,14.485,14.485,0,0,0-.641,18.048c.067.09.2.263.268.354a14.479,14.479,0,0,0,14.432,5.272,14.412,14.412,0,0,0,10.084,10.345c.076.021.21.061.286.081A14.464,14.464,0,0,0,230.42,320.9a14.471,14.471,0,0,0,11.048,5.137q.659,0,1.327-.059l.064-.007a14.472,14.472,0,0,0,11.394-7.4,14.424,14.424,0,0,0,14.141-.406l.015-.008a14.487,14.487,0,0,0,7.037-14.387,14.489,14.489,0,0,0,11.263-14.123v-.053C286.708,289.5,286.708,289.41,286.706,289.321Z" transform="translate(-189.517 -253.041)" fill="#626e60"/>
          <g id="Group_1959" data-name="Group 1959" transform="translate(0 30.912)" opacity="0.21" style="mix-blend-mode: multiply;isolation: isolate">
            <path id="Path_2450" data-name="Path 2450" d="M285.609,271.839a14.5,14.5,0,0,1-10.183,8.656,14.487,14.487,0,0,1-7.037,14.387l-.015.008a14.422,14.422,0,0,1-14.142.406,14.461,14.461,0,0,1-11.393,7.4l-.064.007c-.446.041-.888.059-1.327.059a14.472,14.472,0,0,1-11.049-5.137,14.455,14.455,0,0,1-12.973,2.758l-.288-.082a14.407,14.407,0,0,1-10.082-10.345,14.476,14.476,0,0,1-14.432-5.272c-.069-.089-.2-.261-.268-.354a14.409,14.409,0,0,1-1.72-3.039,14.461,14.461,0,0,0,1.72,14.193c.067.09.2.263.268.354a14.479,14.479,0,0,0,14.432,5.272,14.413,14.413,0,0,0,10.082,10.345c.077.021.212.061.288.081a14.459,14.459,0,0,0,12.973-2.756,14.477,14.477,0,0,0,11.049,5.137q.659,0,1.327-.059l.064-.007a14.469,14.469,0,0,0,11.393-7.4,14.427,14.427,0,0,0,14.142-.406l.015-.008a14.489,14.489,0,0,0,7.037-14.387,14.489,14.489,0,0,0,11.263-14.123v-.053c0-.089,0-.179,0-.268A14.4,14.4,0,0,0,285.609,271.839Z" transform="translate(-189.517 -271.839)" fill="#0d0d0d" opacity="0.34"/>
          </g>
        </g>
      </g>
      <g id="Group_1973" data-name="Group 1973" transform="translate(0 508.722)">
        <path id="Path_2451" data-name="Path 2451" d="M271.577,435.751c0,14.586-37.686,26.413-84.175,26.413s-84.175-11.827-84.175-26.413,37.686-26.413,84.175-26.413S271.577,421.163,271.577,435.751Z" transform="translate(-103.227 -333.987)" fill="#262424" opacity="0.14" style="mix-blend-mode: multiply;isolation: isolate"/>
        <g id="Group_1966" data-name="Group 1966" transform="translate(7.813)">
          <g id="Group_1964" data-name="Group 1964" transform="translate(5.405 75.351)">
            <g id="Group_1962" data-name="Group 1962" transform="translate(37.728)">
              <rect id="Rectangle_1373" data-name="Rectangle 1373" width="5.742" height="32.631" fill="#784e31"/>
            </g>
            <g id="Group_1963" data-name="Group 1963">
              <rect id="Rectangle_1374" data-name="Rectangle 1374" width="5.742" height="32.631" fill="#784e31"/>
            </g>
          </g>
          <path id="Path_2452" data-name="Path 2452" d="M114.437,370.037c2.516-3.019,6.984-6.484,19.265-6.52h.2c6.5.011,14.511.789,19.285,6.52,4.611,5.539,5.614,14.965,3.065,28.824-3.516,19.12-6.565,31.745-6.6,31.871a1.829,1.829,0,0,1-1.774,1.4,1.887,1.887,0,0,1-.434-.051,1.83,1.83,0,0,1-1.345-2.209c.031-.123,3.059-12.659,6.555-31.671,2.34-12.725,1.594-21.171-2.279-25.821-3.031-3.638-7.989-5.2-16.568-5.206-8.579.01-13.537,1.569-16.566,5.206-3.874,4.651-4.619,13.1-2.281,25.821,3.5,19.012,6.525,31.547,6.555,31.671a1.827,1.827,0,0,1-1.345,2.209,1.863,1.863,0,0,1-.432.051,1.828,1.828,0,0,1-1.774-1.4c-.031-.127-3.08-12.751-6.6-31.871C108.824,385,109.826,375.576,114.437,370.037Z" transform="translate(-106.673 -363.517)" fill="#5d3519"/>
          <path id="Path_2453" data-name="Path 2453" d="M129.3,400.425h0a12.294,12.294,0,0,0,12.294-12.294V375.812A12.292,12.292,0,0,0,129.3,363.52h0a12.292,12.292,0,0,0-12.294,12.292v12.319A12.294,12.294,0,0,0,129.3,400.425Z" transform="translate(-102.16 -363.515)" fill="#945d60"/>
          <g id="Group_1965" data-name="Group 1965" transform="translate(5.303 10.957)">
            <path id="Path_2455" data-name="Path 2455" d="M134.658,376.077l.266-.184.082-.058a.216.216,0,0,0,.028-.028c0-.01.03-.026.063-.046s.062-.044.1-.061a1.691,1.691,0,0,1,.479-.189,1.479,1.479,0,0,1,.7.031,2.374,2.374,0,0,1,.965.574,3.964,3.964,0,0,1,.9,1.279,5.485,5.485,0,0,1,.472,1.837c.023.168.02.339.028.513,0,.01.008-.071,0-.031v.01l0,.021,0,.041,0,.084-.007.166-.015.322c-.015.179-.016.347-.041.541s-.039.385-.074.574a10.343,10.343,0,0,1-.6,2.222,11.544,11.544,0,0,1-1.049,2.046,22.949,22.949,0,0,1-2.74,3.363c-.936.962-1.714,1.765-2.258,2.325s-.855.916-.855.916l0,0a.766.766,0,0,0,1.064,1.1s.334-.281.939-.76l2.565-1.987a25.033,25.033,0,0,0,3.527-3.277,14.522,14.522,0,0,0,1.654-2.34,13.651,13.651,0,0,0,1.2-2.777,14.118,14.118,0,0,0,.378-1.513l.064-.339.03-.164.015-.082.008-.041,0-.02v-.01l.007-.051c.033-.268.076-.534.089-.807a9.715,9.715,0,0,0-.291-3.241,8.588,8.588,0,0,0-1.394-2.927,7.358,7.358,0,0,0-2.388-2.1,6.731,6.731,0,0,0-2.824-.817,6.979,6.979,0,0,0-2.291.25c-.153.039-.289.092-.421.135a3.625,3.625,0,0,0-.386.145c-.127.056-.243.107-.352.156-.082.038-.158.072-.224.105l-.289.14,0,0a2.874,2.874,0,1,0,2.5,5.177A3.264,3.264,0,0,0,134.658,376.077Z" transform="translate(-98.993 -370.18)" fill="#784e31"/>
            <path id="Path_2456" data-name="Path 2456" d="M122.094,371.122l-.289-.14-.224-.105c-.109-.049-.227-.1-.354-.156a3.622,3.622,0,0,0-.386-.145c-.132-.043-.268-.1-.421-.135a6.979,6.979,0,0,0-2.291-.25,6.724,6.724,0,0,0-2.822.817,7.358,7.358,0,0,0-2.388,2.1,8.562,8.562,0,0,0-1.4,2.927,9.715,9.715,0,0,0-.291,3.241c.013.273.058.539.089.807l.007.051,0,.01,0,.02.007.041.015.082.03.164.064.339a14.523,14.523,0,0,0,.378,1.513,13.744,13.744,0,0,0,1.2,2.777,14.427,14.427,0,0,0,1.656,2.34,25.034,25.034,0,0,0,3.527,3.277l2.564,1.987c.607.478.941.76.941.76a.766.766,0,0,0,1.064-1.1l0,0s-.306-.342-.853-.916-1.324-1.363-2.258-2.325a22.74,22.74,0,0,1-2.74-3.363,11.552,11.552,0,0,1-1.051-2.046,10.338,10.338,0,0,1-.6-2.222c-.035-.189-.053-.383-.076-.574s-.025-.362-.041-.541l-.015-.322-.007-.166,0-.084,0-.041v-.021l0-.01c0-.039,0,.041,0,.031.01-.174.007-.345.028-.513a5.564,5.564,0,0,1,.472-1.837,3.966,3.966,0,0,1,.9-1.279,2.364,2.364,0,0,1,.965-.574,1.479,1.479,0,0,1,.7-.031,1.68,1.68,0,0,1,.477.189c.035.016.067.043.1.061s.061.036.063.046a.141.141,0,0,0,.026.028l.084.058.265.184a2.874,2.874,0,1,0,3.269-4.728,2.627,2.627,0,0,0-.37-.219Z" transform="translate(-111.203 -370.18)" fill="#784e31"/>
          </g>
          <path id="Path_2457" data-name="Path 2457" d="M117.458,421.584h35.32a9.466,9.466,0,0,0,8.168-14.251l-2.577-4.4a9.468,9.468,0,0,0-8.168-4.682H120.037a9.464,9.464,0,0,0-8.168,4.682l-2.577,4.4A9.465,9.465,0,0,0,117.458,421.584Z" transform="translate(-107.978 -341.13)" fill="#945d60"/>
          <path id="Path_2459" data-name="Path 2459" d="M119.638,369.718a3.274,3.274,0,1,0,3.274-3.276A3.274,3.274,0,0,0,119.638,369.718Z" transform="translate(-100.464 -361.632)" fill="#fff" opacity="0.2"/>
          <path id="Path_2460" data-name="Path 2460" d="M112.766,402.426a3.274,3.274,0,1,0,3.274-3.276A3.274,3.274,0,0,0,112.766,402.426Z" transform="translate(-104.893 -340.553)" fill="#fff" opacity="0.2"/>
          <path id="Path_2461" data-name="Path 2461" d="M131.065,372.968a1.469,1.469,0,1,0,1.469-1.47A1.469,1.469,0,0,0,131.065,372.968Z" transform="translate(-93.1 -358.374)" fill="#99643f"/>
          <path id="Path_2462" data-name="Path 2462" d="M116.112,372.968a1.469,1.469,0,1,0,1.47-1.47A1.469,1.469,0,0,0,116.112,372.968Z" transform="translate(-102.736 -358.374)" fill="#99643f"/>
        </g>
        <g id="Group_1971" data-name="Group 1971" transform="translate(103.368)">
          <g id="Group_1969" data-name="Group 1969" transform="translate(5.405 75.351)">
            <g id="Group_1967" data-name="Group 1967" transform="translate(37.728)">
              <rect id="Rectangle_1375" data-name="Rectangle 1375" width="5.743" height="32.631" fill="#784e31"/>
            </g>
            <g id="Group_1968" data-name="Group 1968">
              <rect id="Rectangle_1376" data-name="Rectangle 1376" width="5.742" height="32.631" fill="#784e31"/>
            </g>
          </g>
          <path id="Path_2463" data-name="Path 2463" d="M172.545,370.037c2.514-3.019,6.982-6.484,19.263-6.52h.2c6.5.011,14.512.789,19.286,6.52,4.611,5.539,5.614,14.965,3.065,28.824-3.516,19.12-6.565,31.745-6.6,31.871a1.829,1.829,0,0,1-1.776,1.4,1.883,1.883,0,0,1-.432-.051,1.829,1.829,0,0,1-1.345-2.209c.03-.123,3.059-12.659,6.555-31.671,2.34-12.725,1.594-21.171-2.279-25.821-3.031-3.638-7.989-5.2-16.568-5.206-8.579.01-13.537,1.569-16.566,5.206-3.874,4.651-4.619,13.1-2.279,25.821,3.5,19.012,6.524,31.547,6.555,31.671a1.83,1.83,0,0,1-1.347,2.209,1.863,1.863,0,0,1-.433.051,1.827,1.827,0,0,1-1.774-1.4c-.031-.127-3.08-12.751-6.6-31.871C166.931,385,167.933,375.576,172.545,370.037Z" transform="translate(-164.78 -363.517)" fill="#5d3519"/>
          <path id="Path_2464" data-name="Path 2464" d="M187.407,400.425h0a12.294,12.294,0,0,0,12.3-12.294V375.812a12.293,12.293,0,0,0-12.3-12.292h0a12.292,12.292,0,0,0-12.294,12.292v12.319A12.294,12.294,0,0,0,187.407,400.425Z" transform="translate(-160.267 -363.515)" fill="#945d60"/>
          <g id="Group_1970" data-name="Group 1970" transform="translate(5.304 10.957)">
            <path id="Path_2466" data-name="Path 2466" d="M192.765,376.077l.266-.184.084-.058.026-.028c0-.01.03-.026.062-.046s.064-.044.1-.061a1.691,1.691,0,0,1,.479-.189,1.479,1.479,0,0,1,.7.031,2.374,2.374,0,0,1,.965.574,3.989,3.989,0,0,1,.9,1.279,5.485,5.485,0,0,1,.472,1.837c.023.168.02.339.028.513,0,.01.008-.071,0-.031v.01l0,.021,0,.041,0,.084-.007.166-.013.322c-.016.179-.018.347-.043.541s-.041.385-.076.574a10.245,10.245,0,0,1-.6,2.222,11.656,11.656,0,0,1-1.049,2.046,22.952,22.952,0,0,1-2.74,3.363c-.934.962-1.714,1.765-2.26,2.325s-.853.916-.853.916l0,0a.766.766,0,0,0,1.064,1.1s.334-.281.939-.76l2.565-1.987a25.033,25.033,0,0,0,3.527-3.277,14.521,14.521,0,0,0,1.654-2.34,13.745,13.745,0,0,0,1.2-2.777,14.518,14.518,0,0,0,.38-1.513l.063-.339.03-.164.015-.082.008-.041,0-.02,0-.01.007-.051c.033-.268.076-.534.089-.807a9.673,9.673,0,0,0-.291-3.241,8.559,8.559,0,0,0-1.395-2.927,7.346,7.346,0,0,0-2.389-2.1,6.718,6.718,0,0,0-2.822-.817,6.979,6.979,0,0,0-2.291.25c-.153.039-.289.092-.421.135a3.621,3.621,0,0,0-.386.145c-.127.056-.245.107-.352.156-.082.038-.158.072-.224.105l-.289.14,0,0a2.874,2.874,0,1,0,2.5,5.177A3.135,3.135,0,0,0,192.765,376.077Z" transform="translate(-157.101 -370.18)" fill="#784e31"/>
            <path id="Path_2467" data-name="Path 2467" d="M180.2,371.122l-.289-.14-.224-.105c-.109-.049-.227-.1-.354-.156a3.623,3.623,0,0,0-.386-.145c-.132-.043-.268-.1-.421-.135a6.979,6.979,0,0,0-2.291-.25,6.725,6.725,0,0,0-2.822.817,7.358,7.358,0,0,0-2.388,2.1,8.562,8.562,0,0,0-1.4,2.927,9.671,9.671,0,0,0-.289,3.241c.013.273.056.539.087.807l.007.051,0,.01,0,.02.007.041.015.082.03.164.064.339a14.525,14.525,0,0,0,.378,1.513,13.742,13.742,0,0,0,1.2,2.777,14.428,14.428,0,0,0,1.656,2.34,25.032,25.032,0,0,0,3.527,3.277c1.061.822,1.945,1.506,2.564,1.987s.941.76.941.76a.766.766,0,0,0,1.064-1.1l0,0s-.3-.342-.853-.916-1.324-1.363-2.258-2.325a22.741,22.741,0,0,1-2.74-3.363,11.552,11.552,0,0,1-1.051-2.046,10.338,10.338,0,0,1-.6-2.222c-.035-.189-.053-.383-.076-.574s-.025-.362-.041-.541l-.015-.322-.007-.166,0-.084,0-.041v-.021l0-.01c0-.039,0,.041,0,.031.01-.174.007-.345.028-.513a5.565,5.565,0,0,1,.472-1.837,3.966,3.966,0,0,1,.9-1.279,2.364,2.364,0,0,1,.965-.574,1.479,1.479,0,0,1,.7-.031,1.68,1.68,0,0,1,.477.189c.035.016.067.043.1.061s.061.036.062.046l.026.028.084.058.265.184a2.875,2.875,0,1,0,2.9-4.947Z" transform="translate(-169.31 -370.18)" fill="#784e31"/>
          </g>
          <path id="Path_2468" data-name="Path 2468" d="M175.567,421.584h35.318a9.466,9.466,0,0,0,8.168-14.251l-2.579-4.4a9.463,9.463,0,0,0-8.166-4.682H178.144a9.463,9.463,0,0,0-8.168,4.682l-2.577,4.4A9.465,9.465,0,0,0,175.567,421.584Z" transform="translate(-166.085 -341.13)" fill="#945d60"/>
          <path id="Path_2470" data-name="Path 2470" d="M177.745,369.718a3.274,3.274,0,1,0,3.274-3.276A3.274,3.274,0,0,0,177.745,369.718Z" transform="translate(-158.571 -361.632)" fill="#fff" opacity="0.2"/>
          <path id="Path_2471" data-name="Path 2471" d="M170.873,402.426a3.274,3.274,0,1,0,3.274-3.276A3.274,3.274,0,0,0,170.873,402.426Z" transform="translate(-163 -340.553)" fill="#fff" opacity="0.2"/>
          <path id="Path_2472" data-name="Path 2472" d="M189.172,372.968a1.469,1.469,0,1,0,1.47-1.47A1.469,1.469,0,0,0,189.172,372.968Z" transform="translate(-151.207 -358.374)" fill="#99643f"/>
          <path id="Path_2473" data-name="Path 2473" d="M174.219,372.968a1.47,1.47,0,1,0,1.47-1.47A1.469,1.469,0,0,0,174.219,372.968Z" transform="translate(-160.843 -358.374)" fill="#99643f"/>
        </g>
        <g id="Group_1972" data-name="Group 1972" transform="translate(46.797 33.001)">
          <path id="Path_2474" data-name="Path 2474" d="M179.39,456.562,165,448.506V389.7a1.665,1.665,0,1,0-3.33,0v58.806l-14.394,8.056a1.665,1.665,0,0,0,1.628,2.906l12.766-7.147v11.163a1.665,1.665,0,1,0,3.33,0V452.321l12.766,7.147a1.665,1.665,0,1,0,1.626-2.906Z" transform="translate(-122.186 -380.718)" fill="#784e31"/>
          <path id="Path_2475" data-name="Path 2475" d="M172.763,456.562l-14.392-8.056V389.7a1.666,1.666,0,0,0-1.666-1.666v77.115a1.667,1.667,0,0,0,1.666-1.666V452.321l12.766,7.147a1.665,1.665,0,1,0,1.626-2.906Z" transform="translate(-115.559 -380.718)" fill="#5d3519"/>
          <path id="Path_2476" data-name="Path 2476" d="M213.978,394.073c0,4.963-18.423,8.982-41.148,8.982s-41.146-4.019-41.146-8.982v-5.025h82.294Z" transform="translate(-131.684 -380.065)" fill="#d5daee"/>
          <path id="Path_2477" data-name="Path 2477" d="M172.832,399.255c-22.725,0-41.148-4.021-41.148-8.98v1.092c0,4.963,18.423,8.984,41.148,8.984s41.146-4.021,41.146-8.984v-1.092C213.978,395.235,195.555,399.255,172.832,399.255Z" transform="translate(-131.684 -379.274)" fill="#fbfbfb"/>
          <path id="Path_2478" data-name="Path 2478" d="M213.978,389.776c0,4.961-18.423,8.982-41.148,8.982s-41.146-4.021-41.146-8.982Z" transform="translate(-131.684 -379.595)" fill="#0d0d0d" opacity="0.31" style="mix-blend-mode: multiply;isolation: isolate"/>
          <path id="Path_2479" data-name="Path 2479" d="M213.978,392.567c0,4.958-18.423,8.982-41.148,8.982s-41.146-4.024-41.146-8.982,18.423-8.982,41.146-8.982S213.978,387.606,213.978,392.567Z" transform="translate(-131.684 -383.585)" fill="#945d60"/>
          <path id="Path_2480" data-name="Path 2480" d="M134.834,395.624a6.463,6.463,0,0,1-3.021-2.578l60.865-8.778c2.108.255,4.1.551,5.964.88Z" transform="translate(-131.601 -383.146)" fill="#fff" opacity="0.2"/>
        </g>
      </g>
      <g id="Group_1974" data-name="Group 1974" transform="translate(314 504.722)">
        <path id="Path_2451-2" data-name="Path 2451" d="M271.577,435.751c0,14.586-37.686,26.413-84.175,26.413s-84.175-11.827-84.175-26.413,37.686-26.413,84.175-26.413S271.577,421.163,271.577,435.751Z" transform="translate(-103.227 -333.987)" fill="#262424" opacity="0.14" style="mix-blend-mode: multiply;isolation: isolate"/>
        <g id="Group_1966-2" data-name="Group 1966" transform="translate(7.813)">
          <g id="Group_1964-2" data-name="Group 1964" transform="translate(5.405 75.351)">
            <g id="Group_1962-2" data-name="Group 1962" transform="translate(37.728)">
              <rect id="Rectangle_1373-2" data-name="Rectangle 1373" width="5.742" height="32.631" fill="#784e31"/>
            </g>
            <g id="Group_1963-2" data-name="Group 1963">
              <rect id="Rectangle_1374-2" data-name="Rectangle 1374" width="5.742" height="32.631" fill="#784e31"/>
            </g>
          </g>
          <path id="Path_2452-2" data-name="Path 2452" d="M114.437,370.037c2.516-3.019,6.984-6.484,19.265-6.52h.2c6.5.011,14.511.789,19.285,6.52,4.611,5.539,5.614,14.965,3.065,28.824-3.516,19.12-6.565,31.745-6.6,31.871a1.829,1.829,0,0,1-1.774,1.4,1.887,1.887,0,0,1-.434-.051,1.83,1.83,0,0,1-1.345-2.209c.031-.123,3.059-12.659,6.555-31.671,2.34-12.725,1.594-21.171-2.279-25.821-3.031-3.638-7.989-5.2-16.568-5.206-8.579.01-13.537,1.569-16.566,5.206-3.874,4.651-4.619,13.1-2.281,25.821,3.5,19.012,6.525,31.547,6.555,31.671a1.827,1.827,0,0,1-1.345,2.209,1.863,1.863,0,0,1-.432.051,1.828,1.828,0,0,1-1.774-1.4c-.031-.127-3.08-12.751-6.6-31.871C108.824,385,109.826,375.576,114.437,370.037Z" transform="translate(-106.673 -363.517)" fill="#5d3519"/>
          <path id="Path_2453-2" data-name="Path 2453" d="M129.3,400.425h0a12.294,12.294,0,0,0,12.294-12.294V375.812A12.292,12.292,0,0,0,129.3,363.52h0a12.292,12.292,0,0,0-12.294,12.292v12.319A12.294,12.294,0,0,0,129.3,400.425Z" transform="translate(-102.16 -363.515)" fill="#945d60"/>
          <g id="Group_1965-2" data-name="Group 1965" transform="translate(5.303 10.957)">
            <path id="Path_2455-2" data-name="Path 2455" d="M134.658,376.077l.266-.184.082-.058a.216.216,0,0,0,.028-.028c0-.01.03-.026.063-.046s.062-.044.1-.061a1.691,1.691,0,0,1,.479-.189,1.479,1.479,0,0,1,.7.031,2.374,2.374,0,0,1,.965.574,3.964,3.964,0,0,1,.9,1.279,5.485,5.485,0,0,1,.472,1.837c.023.168.02.339.028.513,0,.01.008-.071,0-.031v.01l0,.021,0,.041,0,.084-.007.166-.015.322c-.015.179-.016.347-.041.541s-.039.385-.074.574a10.343,10.343,0,0,1-.6,2.222,11.544,11.544,0,0,1-1.049,2.046,22.949,22.949,0,0,1-2.74,3.363c-.936.962-1.714,1.765-2.258,2.325s-.855.916-.855.916l0,0a.766.766,0,0,0,1.064,1.1s.334-.281.939-.76l2.565-1.987a25.033,25.033,0,0,0,3.527-3.277,14.522,14.522,0,0,0,1.654-2.34,13.651,13.651,0,0,0,1.2-2.777,14.118,14.118,0,0,0,.378-1.513l.064-.339.03-.164.015-.082.008-.041,0-.02v-.01l.007-.051c.033-.268.076-.534.089-.807a9.715,9.715,0,0,0-.291-3.241,8.588,8.588,0,0,0-1.394-2.927,7.358,7.358,0,0,0-2.388-2.1,6.731,6.731,0,0,0-2.824-.817,6.979,6.979,0,0,0-2.291.25c-.153.039-.289.092-.421.135a3.625,3.625,0,0,0-.386.145c-.127.056-.243.107-.352.156-.082.038-.158.072-.224.105l-.289.14,0,0a2.874,2.874,0,1,0,2.5,5.177A3.264,3.264,0,0,0,134.658,376.077Z" transform="translate(-98.993 -370.18)" fill="#784e31"/>
            <path id="Path_2456-2" data-name="Path 2456" d="M122.094,371.122l-.289-.14-.224-.105c-.109-.049-.227-.1-.354-.156a3.622,3.622,0,0,0-.386-.145c-.132-.043-.268-.1-.421-.135a6.979,6.979,0,0,0-2.291-.25,6.724,6.724,0,0,0-2.822.817,7.358,7.358,0,0,0-2.388,2.1,8.562,8.562,0,0,0-1.4,2.927,9.715,9.715,0,0,0-.291,3.241c.013.273.058.539.089.807l.007.051,0,.01,0,.02.007.041.015.082.03.164.064.339a14.523,14.523,0,0,0,.378,1.513,13.744,13.744,0,0,0,1.2,2.777,14.427,14.427,0,0,0,1.656,2.34,25.034,25.034,0,0,0,3.527,3.277l2.564,1.987c.607.478.941.76.941.76a.766.766,0,0,0,1.064-1.1l0,0s-.306-.342-.853-.916-1.324-1.363-2.258-2.325a22.74,22.74,0,0,1-2.74-3.363,11.552,11.552,0,0,1-1.051-2.046,10.338,10.338,0,0,1-.6-2.222c-.035-.189-.053-.383-.076-.574s-.025-.362-.041-.541l-.015-.322-.007-.166,0-.084,0-.041v-.021l0-.01c0-.039,0,.041,0,.031.01-.174.007-.345.028-.513a5.564,5.564,0,0,1,.472-1.837,3.966,3.966,0,0,1,.9-1.279,2.364,2.364,0,0,1,.965-.574,1.479,1.479,0,0,1,.7-.031,1.68,1.68,0,0,1,.477.189c.035.016.067.043.1.061s.061.036.063.046a.141.141,0,0,0,.026.028l.084.058.265.184a2.874,2.874,0,1,0,3.269-4.728,2.627,2.627,0,0,0-.37-.219Z" transform="translate(-111.203 -370.18)" fill="#784e31"/>
          </g>
          <path id="Path_2457-2" data-name="Path 2457" d="M117.458,421.584h35.32a9.466,9.466,0,0,0,8.168-14.251l-2.577-4.4a9.468,9.468,0,0,0-8.168-4.682H120.037a9.464,9.464,0,0,0-8.168,4.682l-2.577,4.4A9.465,9.465,0,0,0,117.458,421.584Z" transform="translate(-107.978 -341.13)" fill="#945d60"/>
          <path id="Path_2459-2" data-name="Path 2459" d="M119.638,369.718a3.274,3.274,0,1,0,3.274-3.276A3.274,3.274,0,0,0,119.638,369.718Z" transform="translate(-100.464 -361.632)" fill="#fff" opacity="0.2"/>
          <path id="Path_2460-2" data-name="Path 2460" d="M112.766,402.426a3.274,3.274,0,1,0,3.274-3.276A3.274,3.274,0,0,0,112.766,402.426Z" transform="translate(-104.893 -340.553)" fill="#fff" opacity="0.2"/>
          <path id="Path_2461-2" data-name="Path 2461" d="M131.065,372.968a1.469,1.469,0,1,0,1.469-1.47A1.469,1.469,0,0,0,131.065,372.968Z" transform="translate(-93.1 -358.374)" fill="#99643f"/>
          <path id="Path_2462-2" data-name="Path 2462" d="M116.112,372.968a1.469,1.469,0,1,0,1.47-1.47A1.469,1.469,0,0,0,116.112,372.968Z" transform="translate(-102.736 -358.374)" fill="#99643f"/>
        </g>
        <g id="Group_1971-2" data-name="Group 1971" transform="translate(103.368)">
          <g id="Group_1969-2" data-name="Group 1969" transform="translate(5.405 75.351)">
            <g id="Group_1967-2" data-name="Group 1967" transform="translate(37.728)">
              <rect id="Rectangle_1375-2" data-name="Rectangle 1375" width="5.743" height="32.631" fill="#784e31"/>
            </g>
            <g id="Group_1968-2" data-name="Group 1968">
              <rect id="Rectangle_1376-2" data-name="Rectangle 1376" width="5.742" height="32.631" fill="#784e31"/>
            </g>
          </g>
          <path id="Path_2463-2" data-name="Path 2463" d="M172.545,370.037c2.514-3.019,6.982-6.484,19.263-6.52h.2c6.5.011,14.512.789,19.286,6.52,4.611,5.539,5.614,14.965,3.065,28.824-3.516,19.12-6.565,31.745-6.6,31.871a1.829,1.829,0,0,1-1.776,1.4,1.883,1.883,0,0,1-.432-.051,1.829,1.829,0,0,1-1.345-2.209c.03-.123,3.059-12.659,6.555-31.671,2.34-12.725,1.594-21.171-2.279-25.821-3.031-3.638-7.989-5.2-16.568-5.206-8.579.01-13.537,1.569-16.566,5.206-3.874,4.651-4.619,13.1-2.279,25.821,3.5,19.012,6.524,31.547,6.555,31.671a1.83,1.83,0,0,1-1.347,2.209,1.863,1.863,0,0,1-.433.051,1.827,1.827,0,0,1-1.774-1.4c-.031-.127-3.08-12.751-6.6-31.871C166.931,385,167.933,375.576,172.545,370.037Z" transform="translate(-164.78 -363.517)" fill="#5d3519"/>
          <path id="Path_2464-2" data-name="Path 2464" d="M187.407,400.425h0a12.294,12.294,0,0,0,12.3-12.294V375.812a12.293,12.293,0,0,0-12.3-12.292h0a12.292,12.292,0,0,0-12.294,12.292v12.319A12.294,12.294,0,0,0,187.407,400.425Z" transform="translate(-160.267 -363.515)" fill="#945d60"/>
          <g id="Group_1970-2" data-name="Group 1970" transform="translate(5.304 10.957)">
            <path id="Path_2466-2" data-name="Path 2466" d="M192.765,376.077l.266-.184.084-.058.026-.028c0-.01.03-.026.062-.046s.064-.044.1-.061a1.691,1.691,0,0,1,.479-.189,1.479,1.479,0,0,1,.7.031,2.374,2.374,0,0,1,.965.574,3.989,3.989,0,0,1,.9,1.279,5.485,5.485,0,0,1,.472,1.837c.023.168.02.339.028.513,0,.01.008-.071,0-.031v.01l0,.021,0,.041,0,.084-.007.166-.013.322c-.016.179-.018.347-.043.541s-.041.385-.076.574a10.245,10.245,0,0,1-.6,2.222,11.656,11.656,0,0,1-1.049,2.046,22.952,22.952,0,0,1-2.74,3.363c-.934.962-1.714,1.765-2.26,2.325s-.853.916-.853.916l0,0a.766.766,0,0,0,1.064,1.1s.334-.281.939-.76l2.565-1.987a25.033,25.033,0,0,0,3.527-3.277,14.521,14.521,0,0,0,1.654-2.34,13.745,13.745,0,0,0,1.2-2.777,14.518,14.518,0,0,0,.38-1.513l.063-.339.03-.164.015-.082.008-.041,0-.02,0-.01.007-.051c.033-.268.076-.534.089-.807a9.673,9.673,0,0,0-.291-3.241,8.559,8.559,0,0,0-1.395-2.927,7.346,7.346,0,0,0-2.389-2.1,6.718,6.718,0,0,0-2.822-.817,6.979,6.979,0,0,0-2.291.25c-.153.039-.289.092-.421.135a3.621,3.621,0,0,0-.386.145c-.127.056-.245.107-.352.156-.082.038-.158.072-.224.105l-.289.14,0,0a2.874,2.874,0,1,0,2.5,5.177A3.135,3.135,0,0,0,192.765,376.077Z" transform="translate(-157.101 -370.18)" fill="#784e31"/>
            <path id="Path_2467-2" data-name="Path 2467" d="M180.2,371.122l-.289-.14-.224-.105c-.109-.049-.227-.1-.354-.156a3.623,3.623,0,0,0-.386-.145c-.132-.043-.268-.1-.421-.135a6.979,6.979,0,0,0-2.291-.25,6.725,6.725,0,0,0-2.822.817,7.358,7.358,0,0,0-2.388,2.1,8.562,8.562,0,0,0-1.4,2.927,9.671,9.671,0,0,0-.289,3.241c.013.273.056.539.087.807l.007.051,0,.01,0,.02.007.041.015.082.03.164.064.339a14.525,14.525,0,0,0,.378,1.513,13.742,13.742,0,0,0,1.2,2.777,14.428,14.428,0,0,0,1.656,2.34,25.032,25.032,0,0,0,3.527,3.277c1.061.822,1.945,1.506,2.564,1.987s.941.76.941.76a.766.766,0,0,0,1.064-1.1l0,0s-.3-.342-.853-.916-1.324-1.363-2.258-2.325a22.741,22.741,0,0,1-2.74-3.363,11.552,11.552,0,0,1-1.051-2.046,10.338,10.338,0,0,1-.6-2.222c-.035-.189-.053-.383-.076-.574s-.025-.362-.041-.541l-.015-.322-.007-.166,0-.084,0-.041v-.021l0-.01c0-.039,0,.041,0,.031.01-.174.007-.345.028-.513a5.565,5.565,0,0,1,.472-1.837,3.966,3.966,0,0,1,.9-1.279,2.364,2.364,0,0,1,.965-.574,1.479,1.479,0,0,1,.7-.031,1.68,1.68,0,0,1,.477.189c.035.016.067.043.1.061s.061.036.062.046l.026.028.084.058.265.184a2.875,2.875,0,1,0,2.9-4.947Z" transform="translate(-169.31 -370.18)" fill="#784e31"/>
          </g>
          <path id="Path_2468-2" data-name="Path 2468" d="M175.567,421.584h35.318a9.466,9.466,0,0,0,8.168-14.251l-2.579-4.4a9.463,9.463,0,0,0-8.166-4.682H178.144a9.463,9.463,0,0,0-8.168,4.682l-2.577,4.4A9.465,9.465,0,0,0,175.567,421.584Z" transform="translate(-166.085 -341.13)" fill="#945d60"/>
          <path id="Path_2470-2" data-name="Path 2470" d="M177.745,369.718a3.274,3.274,0,1,0,3.274-3.276A3.274,3.274,0,0,0,177.745,369.718Z" transform="translate(-158.571 -361.632)" fill="#fff" opacity="0.2"/>
          <path id="Path_2471-2" data-name="Path 2471" d="M170.873,402.426a3.274,3.274,0,1,0,3.274-3.276A3.274,3.274,0,0,0,170.873,402.426Z" transform="translate(-163 -340.553)" fill="#fff" opacity="0.2"/>
          <path id="Path_2472-2" data-name="Path 2472" d="M189.172,372.968a1.469,1.469,0,1,0,1.47-1.47A1.469,1.469,0,0,0,189.172,372.968Z" transform="translate(-151.207 -358.374)" fill="#99643f"/>
          <path id="Path_2473-2" data-name="Path 2473" d="M174.219,372.968a1.47,1.47,0,1,0,1.47-1.47A1.469,1.469,0,0,0,174.219,372.968Z" transform="translate(-160.843 -358.374)" fill="#99643f"/>
        </g>
        <g id="Group_1972-2" data-name="Group 1972" transform="translate(46.797 33.001)">
          <path id="Path_2474-2" data-name="Path 2474" d="M179.39,456.562,165,448.506V389.7a1.665,1.665,0,1,0-3.33,0v58.806l-14.394,8.056a1.665,1.665,0,0,0,1.628,2.906l12.766-7.147v11.163a1.665,1.665,0,1,0,3.33,0V452.321l12.766,7.147a1.665,1.665,0,1,0,1.626-2.906Z" transform="translate(-122.186 -380.718)" fill="#784e31"/>
          <path id="Path_2475-2" data-name="Path 2475" d="M172.763,456.562l-14.392-8.056V389.7a1.666,1.666,0,0,0-1.666-1.666v77.115a1.667,1.667,0,0,0,1.666-1.666V452.321l12.766,7.147a1.665,1.665,0,1,0,1.626-2.906Z" transform="translate(-115.559 -380.718)" fill="#5d3519"/>
          <path id="Path_2476-2" data-name="Path 2476" d="M213.978,394.073c0,4.963-18.423,8.982-41.148,8.982s-41.146-4.019-41.146-8.982v-5.025h82.294Z" transform="translate(-131.684 -380.065)" fill="#d5daee"/>
          <path id="Path_2477-2" data-name="Path 2477" d="M172.832,399.255c-22.725,0-41.148-4.021-41.148-8.98v1.092c0,4.963,18.423,8.984,41.148,8.984s41.146-4.021,41.146-8.984v-1.092C213.978,395.235,195.555,399.255,172.832,399.255Z" transform="translate(-131.684 -379.274)" fill="#fbfbfb"/>
          <path id="Path_2478-2" data-name="Path 2478" d="M213.978,389.776c0,4.961-18.423,8.982-41.148,8.982s-41.146-4.021-41.146-8.982Z" transform="translate(-131.684 -379.595)" fill="#0d0d0d" opacity="0.31" style="mix-blend-mode: multiply;isolation: isolate"/>
          <path id="Path_2479-2" data-name="Path 2479" d="M213.978,392.567c0,4.958-18.423,8.982-41.148,8.982s-41.146-4.024-41.146-8.982,18.423-8.982,41.146-8.982S213.978,387.606,213.978,392.567Z" transform="translate(-131.684 -383.585)" fill="#945d60"/>
          <path id="Path_2480-2" data-name="Path 2480" d="M134.834,395.624a6.463,6.463,0,0,1-3.021-2.578l60.865-8.778c2.108.255,4.1.551,5.964.88Z" transform="translate(-131.601 -383.146)" fill="#fff" opacity="0.2"/>
        </g>
      </g>
    </g>
  </g>
</svg>
